<?xml version="1.0" encoding="UTF-8"?>
<svg xmlns="http://www.w3.org/2000/svg" xmlns:xlink="http://www.w3.org/1999/xlink" viewBox="0 0 40 40" width="32px" height="32px">
<g id="surface9565664">
<path style=" stroke:none;fill-rule:nonzero;fill:rgb(1.176471%,66.274512%,95.686275%);fill-opacity:1;" d="M 20 40 C 8.953125 40 0 31.046875 0 20 C 0 8.953125 8.953125 0 20 0 C 31.046875 0 40 8.953125 40 20 C 40 31.046875 31.046875 40 20 40 Z M 20 40 "/>
<path style=" stroke:none;fill-rule:nonzero;fill:rgb(255, 255, 255);fill-opacity:1;" d="M 31.273438 12.648438 C 30.445312 13.015625 29.554688 13.261719 28.613281 13.375 C 29.570312 12.808594 30.304688 11.902344 30.652344 10.835938 C 29.757812 11.359375 28.765625 11.742188 27.710938 11.945312 C 26.871094 11.054688 25.667969 10.5 24.339844 10.5 C 21.78125 10.5 19.710938 12.554688 19.710938 15.085938 C 19.710938 15.445312 19.753906 15.792969 19.832031 16.132812 C 15.988281 15.9375 12.578125 14.109375 10.296875 11.335938 C 9.894531 12.015625 9.667969 12.808594 9.667969 13.644531 C 9.667969 15.238281 10.484375 16.640625 11.726562 17.464844 C 10.96875 17.441406 10.253906 17.230469 9.628906 16.890625 C 9.628906 16.90625 9.628906 16.925781 9.628906 16.945312 C 9.628906 19.171875 11.222656 21.023438 13.339844 21.445312 C 12.953125 21.550781 12.542969 21.609375 12.125 21.609375 C 11.824219 21.609375 11.53125 21.574219 11.25 21.523438 C 11.839844 23.34375 13.546875 24.671875 15.570312 24.710938 C 13.988281 25.9375 11.992188 26.671875 9.824219 26.671875 C 9.449219 26.671875 9.085938 26.652344 8.722656 26.609375 C 10.769531 27.90625 13.203125 28.667969 15.816406 28.667969 C 24.324219 28.667969 28.980469 21.679688 28.980469 15.617188 C 28.980469 15.417969 28.976562 15.21875 28.964844 15.023438 C 29.875 14.382812 30.65625 13.574219 31.273438 12.648438 "/>
</g>
</svg>
